<svg width="1478" height="679" viewBox="0 0 1478 679" fill="none" xmlns="http://www.w3.org/2000/svg">
<path d="M1 175.235C117.668 214.509 306.231 256.347 444.346 214.783C652.274 152.21 828.213 -49.9822 1134.61 13.0165C1257.25 38.2344 1397.07 129.302 1477 175.235" stroke="#590D56"/>
<path d="M1 328.058C117.668 320.407 306.231 312.257 444.346 320.354C652.274 332.544 828.213 371.932 1134.61 359.659C1257.25 354.747 1397.07 336.948 1477 328" stroke="#590D56"/>
<path d="M1 641.29C117.668 652.851 306.231 665.167 444.346 652.932C652.274 634.512 828.213 574.992 1134.61 593.537C1257.25 600.961 1397.07 627.479 1477 641" stroke="#590D56"/>
<path d="M1 419.529C117.668 440.611 306.231 463.069 444.346 440.758C652.274 407.169 828.213 298.633 1134.61 332.45C1257.25 345.987 1397.07 394.344 1477 419" stroke="#590D56"/>
<path d="M1 560.335C117.668 533.812 306.231 505.558 444.346 533.627C652.274 575.884 828.213 712.43 1134.61 669.885C1257.25 652.855 1397.07 591.019 1477 560" stroke="#590D56"/>
</svg>
