<svg width="2889" height="853" viewBox="0 0 2889 853" fill="none" xmlns="http://www.w3.org/2000/svg">
<path d="M1152 100.612C845.181 178.709 844.5 550.768 443.962 401.552C305.655 350.027 116.83 401.891 0 450.578V494.142C0 494.142 309 352.5 608.5 705.5C908 1058.5 1442 667 1442 667V185.9C1324.5 129.041 1274.82 69.3509 1152 100.612Z" fill="url(#paint0_linear_1795_66)"/>
<path d="M1704.84 752.382C2018.89 674.285 2019.59 302.226 2429.57 451.442C2571.14 502.967 2768.91 542.687 2888.5 494V450.5C2888.5 450.5 2567.71 500.494 2261.15 147.494C1954.59 -205.506 1408 185.994 1408 185.994V667.094C1528.27 723.952 1579.12 783.643 1704.84 752.382Z" fill="url(#paint1_linear_1795_66)"/>
<defs>
<linearGradient id="paint0_linear_1795_66" x1="1320" y1="613.112" x2="189.078" y2="736.159" gradientUnits="userSpaceOnUse">
<stop stop-color="#590D56"/>
<stop offset="1" stop-color="#8C1688"/>
</linearGradient>
<linearGradient id="paint1_linear_1795_66" x1="1532.88" y1="239.882" x2="2689.82" y2="111.036" gradientUnits="userSpaceOnUse">
<stop stop-color="#590D56"/>
<stop offset="1" stop-color="#8C1688"/>
</linearGradient>
</defs>
</svg>
